# xmcd
#
# Track frame offsets: 
#        150
#        15065
#        30804
#        45760
#        61193
#        78981
#        96260
#        110021
#        125405
#        144215
#        163892
#
# Disc length: 2378 seconds
#
# Revision: 0
# Processed by: cddbd v1.5.2PL0 Copyright (c) Steve Scherf et al.
# Submitted via: ExactAudioCopyFreeDBPlugin 1.0
#
DISCID=7409480b
DTITLE=Two Tons Of Steel - Unraveled
DYEAR=2013
DGENRE=Country
TTITLE0=Really Want You
TTITLE1=Crazy Heart
TTITLE2=Ease My Mind
TTITLE3=Busted
TTITLE4=Mama
TTITLE5=This Life of Mine
TTITLE6=No Beer
TTITLE7=Hell Cat
TTITLE8=Pool Cue
TTITLE9=One More Time
TTITLE10=Can't Stop Us Now
EXTD=
EXTT0=
EXTT1=
EXTT2=
EXTT3=
EXTT4=
EXTT5=
EXTT6=
EXTT7=
EXTT8=
EXTT9=
EXTT10=
PLAYORDER=
